<?xml version="1.0" encoding="UTF-8" standalone="no"?>
<!-- Created with Inkscape (http://www.inkscape.org/) -->

<svg
   xmlns:dc="http://purl.org/dc/elements/1.1/"
   xmlns:cc="http://creativecommons.org/ns#"
   xmlns:rdf="http://www.w3.org/1999/02/22-rdf-syntax-ns#"
   xmlns:svg="http://www.w3.org/2000/svg"
   xmlns="http://www.w3.org/2000/svg"
   xmlns:sodipodi="http://sodipodi.sourceforge.net/DTD/sodipodi-0.dtd"
   xmlns:inkscape="http://www.inkscape.org/namespaces/inkscape"
   width="200mm"
   height="200mm"
   viewBox="0 0 200 200"
   version="1.1"
   id="svg8"
   sodipodi:docname="spice.svg"
   inkscape:version="0.92.4 (unknown)">
  <defs
     id="defs2" />
  <sodipodi:namedview
     id="base"
     pagecolor="#ffffff"
     bordercolor="#666666"
     borderopacity="1.0"
     inkscape:pageopacity="0.0"
     inkscape:pageshadow="2"
     inkscape:zoom="0.7"
     inkscape:cx="652.65432"
     inkscape:cy="758.08691"
     inkscape:document-units="mm"
     inkscape:current-layer="layer1"
     showgrid="false"
     inkscape:window-width="2560"
     inkscape:window-height="1376"
     inkscape:window-x="1920"
     inkscape:window-y="27"
     inkscape:window-maximized="1" />
  <metadata
     id="metadata5">
    <rdf:RDF>
      <cc:Work
         rdf:about="">
        <dc:format>image/svg+xml</dc:format>
        <dc:type
           rdf:resource="http://purl.org/dc/dcmitype/StillImage" />
        <dc:title></dc:title>
      </cc:Work>
    </rdf:RDF>
  </metadata>
  <g
     inkscape:label="Layer 1"
     inkscape:groupmode="layer"
     id="layer1"
     transform="translate(0,-97)">
    <g
       id="g880"
       transform="matrix(0.66226782,0,0,0.69378241,24.31472,164.64019)">
      <g
         id="g922"
         transform="matrix(0.62891803,0,0,0.62891803,64.519927,-76.959182)">
        <path
           inkscape:connector-curvature="0"
           id="path894"
           d="m 43.137667,401.63532 c -23.594035,-0.62762 -48.3732843,-4.55922 -72.24423,-11.46262 -23.915793,-6.91636 -46.916424,-17.05359 -66.736104,-29.41308 -10.770203,-6.71626 -20.743693,-14.11941 -29.356863,-21.79112 -5.61357,-4.99997 -12.82666,-12.22942 -17.25509,-17.29422 -7.63164,-8.72831 -11.92873,-15.93071 -13.73973,-23.02933 -1.18338,-4.63853 -1.29113,-9.32691 -0.3084,-13.41967 1.8855,-7.8525 7.45024,-13.90944 15.65975,-17.04484 7.92002,-3.02485 18.96257,-3.39311 32.05291,-1.06896 3.55613,0.63137 6.89979,1.3416 13.370757,2.84006 10.57573,2.44898 14.82029,3.23101 20.828,3.83742 3.863323,0.38995 5.485672,0.46429 10.202333,0.46744 5.145998,0.003 7.524606,-0.11949 12.319,-0.63676 27.794382,-2.99871 58.4865226,-16.2364 83.185,-35.87815 5.304671,-4.2186 9.280381,-7.757 13.803342,-12.28502 6.572546,-6.57991 12.16014,-13.37096 17.072178,-20.74919 3.65451,-5.48933 6.255487,-10.23084 10.35707,-18.88066 4.693277,-9.89763 7.955331,-16.03305 11.732337,-22.06668 5.168087,-8.25584 9.882776,-14.32542 16.038573,-20.64766 5.69905,-5.85315 6.46341,-6.78941 9.22754,-11.303 0.52759,-0.86148 1.16752,-1.89018 1.42211,-2.286 3.36283,-5.22853 7.41183,-8.56745 15.08753,-12.44161 10.3154,-5.20649 21.43713,-8.28108 33.23299,-9.18721 5.34175,-0.41033 11.90136,-0.37797 17.44133,0.086 10.13932,0.84925 20.71016,3.25874 31.369,7.15016 1.92578,0.70308 5.38101,2.07751 9.10167,3.62048 4.61624,1.91435 6.5796,2.4864 8.97466,2.61486 3.04682,0.1634 6.62929,-1.02499 10.75882,-3.56898 7.9916,-4.9232 14.90986,-12.74098 18.92228,-21.382534 4.10809,-8.847633 5.5541,-18.280998 4.34709,-28.359202 -0.68385,-5.709903 -2.84385,-15.868218 -5.23887,-24.638 -1.94027,-7.104634 -2.22949,-8.602912 -2.30687,-11.950396 -0.0515,-2.227913 0.0288,-3.317573 0.36724,-4.982937 1.74535,-8.588494 10.17119,-17.7676056 19.33598,-21.064601 4.37563,-1.5741159 9.09289,-2.0133158 13.82391,-1.2870739 7.45786,1.1448297 15.05217,5.6510157 19.50688,11.5746789 1.82275,2.42381 3.34748,5.413826 4.46199,8.750045 2.38211,7.130727 4.93104,20.736422 5.89167,31.448618 0.47623,5.310471 0.62369,8.924467 0.6253,15.324666 10e-4,5.207813 -0.0698,7.665221 -0.32962,11.387667 -1.0558,15.128232 -4.65555,29.661169 -10.64179,42.963069 -0.94027,2.08933 -3.24716,6.67831 -4.36529,8.6836 -4.55943,8.17705 -9.92381,15.59915 -16.09389,22.26733 -0.5386,0.58208 -2.50654,2.60138 -4.3732,4.48733 -1.86666,1.88595 -3.75762,3.85639 -4.20214,4.37876 -1.76917,2.07901 -2.57001,3.61182 -2.90464,5.5595 -0.35288,2.05396 -0.0256,4.03102 1.52246,9.19641 3.23534,10.79541 4.7709,19.13763 5.37671,29.21 0.24751,4.11503 0.18902,10.92764 -0.13156,15.32467 -0.77608,10.6443 -3.23676,21.55677 -6.44217,28.5692 -1.3961,3.05422 -2.83987,5.2622 -5.78169,8.84206 -3.81497,4.64236 -4.67802,6.11541 -7.69557,13.13474 -0.79074,1.83938 -1.76162,4.04918 -2.15753,4.91066 -5.2307,11.38184 -11.37442,21.17943 -19.48112,31.0672 -4.93841,6.0234 -9.36959,10.86142 -16.21665,17.70555 -5.27056,5.26829 -7.92652,7.76931 -12.53739,11.80602 -13.21408,11.56861 -28.94785,22.5084 -45.085,31.34788 -14.24419,7.80257 -30.03831,14.70804 -44.74634,19.56389 -17.02024,5.61924 -35.527104,8.89893 -55.498997,9.83525 -5.243838,0.24584 -15.532303,0.32427 -21.547666,0.16425 z"
           style="fill:#ffffff;stroke-width:0.08466667" />
        <path
           inkscape:connector-curvature="0"
           id="path892"
           d="M 45.635333,396.511 C 29.041336,396.13882 13.140698,394.37798 -3.2173333,391.10103 -25.779408,386.58125 -46.820489,379.75459 -66.886667,370.4439 c -2.557272,-1.18658 -9.034873,-4.40454 -11.599333,-5.76234 -16.588676,-8.78326 -32.0103,-19.45921 -44.45,-30.77145 -8.19121,-7.44881 -16.22259,-15.98978 -20.6613,-21.97222 -4.81768,-6.49322 -7.46426,-12.40564 -8.12957,-18.16127 -0.18975,-1.64151 -0.13245,-4.41426 0.1216,-5.88434 0.54839,-3.17333 1.73554,-5.90242 3.60932,-8.29733 0.60764,-0.77664 2.63304,-2.78565 3.38528,-3.3579 3.81949,-2.90555 8.58189,-4.54716 15.113,-5.20948 2.0994,-0.2129 8.02444,-0.21163 10.49348,0.002 6.40359,0.5547 11.30939,1.4326 22.314857,3.99327 9.707329,2.25863 14.220596,3.11942 19.727333,3.76249 15.960361,1.86381 33.527534,0.0626 51.139496,-5.24334 22.2962897,-6.71724 43.802952,-18.23529 62.356171,-33.39532 4.785267,-3.91009 8.435602,-7.22201 12.61905,-11.44912 4.960459,-5.01226 9.020437,-9.74014 13.273955,-15.45765 5.715161,-7.68221 9.380965,-13.96434 14.662616,-25.12752 1.913323,-4.04396 4.591524,-9.4578 5.842847,-11.811 5.261042,-9.8938 10.975441,-18.39739 16.84119,-25.06134 1.429825,-1.6244 2.759195,-3.03636 5.376365,-5.71042 4.75395,-4.85726 6.0475,-6.44601 8.32805,-10.22859 1.29477,-2.14752 2.65256,-4.20219 3.37068,-5.10065 0.8377,-1.04808 2.89389,-3.05946 4.01502,-3.92753 4.91962,-3.8092 13.58201,-7.83521 21.96923,-10.21065 6.20654,-1.75782 12.10239,-2.72578 19.13466,-3.14148 2.16087,-0.12774 8.283,-0.12868 10.541,-0.002 9.10922,0.51254 17.52178,2.03772 26.83934,4.86591 4.76594,1.44663 8.78857,2.94749 15.42605,5.7555 5.72847,2.42346 7.62952,3.01548 10.52428,3.27747 2.52299,0.22834 5.28639,-0.24791 8.21267,-1.4154 5.50592,-2.19667 12.33044,-7.06331 17.01027,-12.13024 8.70053,-9.42019 13.66407,-20.440133 14.91318,-33.109949 0.2969,-3.011441 0.25507,-7.952596 -0.0971,-11.472334 -0.6202,-6.198167 -2.82821,-16.765083 -5.74676,-27.50229 -1.38074,-5.079695 -1.72888,-6.920374 -1.79898,-9.511472 -0.0623,-2.303269 0.15078,-3.956799 0.74755,-5.800865 0.95375,-2.947132 2.64382,-5.700325 5.18776,-8.451039 5.08229,-5.495371 11.13402,-8.3178881 17.83243,-8.3170169 3.91573,5.08e-4 7.40697,0.8640022 11.11604,2.7493419 2.47023,1.255631 4.50493,2.72985 6.45552,4.67725 4.44036,4.433111 6.37932,9.227594 8.92023,22.057091 1.63754,8.268183 2.55254,15.398268 3.06401,23.876 0.14372,2.382038 0.19955,12.551461 0.0841,15.313627 -0.35373,8.462128 -1.31223,15.756102 -3.10559,23.633036 -3.80196,16.69914 -11.24737,32.32843 -21.57822,45.29667 -3.09932,3.89056 -6.13434,7.20798 -10.72229,11.71998 -2.82551,2.77873 -4.00199,4.01276 -4.92986,5.17102 -2.10541,2.62818 -2.9601,4.6976 -3.07722,7.45067 -0.1023,2.40491 0.27183,4.28343 1.88015,9.44033 1.80539,5.78876 2.77038,9.48467 3.66968,14.05467 1.46654,7.45266 2.07072,13.71089 2.07205,21.463 8.4e-4,3.80922 -0.0742,5.85626 -0.32977,9.017 -0.80303,9.93199 -3.20028,20.21548 -6.13193,26.30427 -1.31058,2.72195 -2.29427,4.17067 -5.24582,7.72578 -3.90407,4.70237 -4.67051,6.01683 -7.88273,13.51888 -2.24716,5.24817 -3.7111,8.39154 -5.49666,11.8024 -6.30283,12.04002 -13.37017,21.67092 -25.31539,34.49815 -2.10792,2.26356 -9.41762,9.60222 -11.64838,11.69454 -11.65495,10.93159 -23.24296,19.89978 -37.07978,28.69678 -14.3785,9.14138 -30.6141,17.2525 -47.5132,23.73704 -11.23454,4.31093 -20.91149,7.14535 -31.960466,9.36137 -11.282646,2.26289 -22.200574,3.52306 -34.912131,4.02963 -2.140805,0.0853 -13.876468,0.16825 -16.256,0.11487 z m -81.407,-93.24923 c 5.215332,-0.28486 9.53682,-0.69332 13.97,-1.32044 20.3421322,-2.87761 38.923883,-9.87549 55.753,-20.99655 17.961941,-11.86965 33.823385,-28.57632 46.537288,-49.01716 6.732744,-10.8246 12.35522,-22.21047 16.723766,-33.86667 1.037141,-2.7673 2.467542,-7.06967 2.350448,-7.06967 -0.02019,0 -0.727134,1.38113 -1.570981,3.06917 -11.342548,22.68969 -24.389749,41.13231 -39.966443,56.49383 -14.729477,14.52601 -31.160652,25.67046 -49.5587443,33.61325 -24.8216077,10.71593 -52.8136107,15.2433 -82.1689997,13.28985 -11.813998,-0.78615 -22.973306,-2.51522 -33.901367,-5.2528 -1.3928,-0.34891 -2.5739,-0.62053 -2.62467,-0.6036 -0.1405,0.0469 3.47463,1.22041 7.18904,2.33373 18.456441,5.53193 35.584186,8.59438 52.154663,9.3253 1.1176,0.0493 2.3749,0.10225 2.794,0.11768 1.557748,0.0574 10.726166,-0.0289 12.319,-0.11592 z"
           style="fill:#000000;stroke-width:0.08466667" />
        <path
           inkscape:connector-curvature="0"
           id="path890"
           d="m 42.587333,392.32191 c -34.2389626,-1.1932 -69.272988,-9.01861 -100.564848,-22.46277 -21.927744,-9.42098 -41.205375,-21.14519 -57.740195,-35.11627 -3.69584,-3.12279 -6.95907,-6.12744 -10.97334,-10.1038 -5.03066,-4.98315 -8.72367,-9.01649 -12.75381,-13.92912 -4.52342,-5.51393 -7.28298,-10.5477 -8.47075,-15.45167 -0.42415,-1.75119 -0.54739,-2.76882 -0.54739,-4.51992 0,-3.34689 0.69788,-5.78395 2.38012,-8.31159 0.77577,-1.16562 2.37154,-2.72974 3.69651,-3.62316 1.11614,-0.75261 3.09451,-1.75494 4.46437,-2.26183 1.7942,-0.66392 4.79181,-1.30092 7.62347,-1.62004 1.9421,-0.21886 8.24144,-0.21752 10.6222,0.002 5.52168,0.50976 10.96452,1.5198 20.150663,3.73942 8.454057,2.04272 11.984,2.85347 14.520334,3.33498 9.936175,1.88633 20.695335,2.34884 31.665333,1.36122 21.391042,-1.92581 44.2335751,-9.4362 66.04,-21.71326 5.518345,-3.10685 11.439144,-6.87053 16.51,-10.49493 14.570083,-10.41401 26.642966,-21.97843 36.244293,-34.71783 6.203027,-8.23042 10.710892,-15.90641 15.047146,-25.62227 7.006878,-15.6997 14.488372,-27.9894 22.798511,-37.45067 1.46243,-1.665 4.39939,-4.68089 6.04705,-6.20954 0.62865,-0.58325 1.37055,-1.27339 1.64867,-1.53366 0.5229,-0.48932 1.30936,-1.15516 3.26598,-2.76505 1.0713,-0.88147 1.18486,-1.00479 1.91011,-2.07433 0.4241,-0.62543 1.10127,-1.66496 1.50481,-2.31005 l 0.73371,-1.17292 -0.18848,-0.64742 c -0.26715,-0.91772 -0.26627,-2.13304 0.002,-2.89109 0.2474,-0.69884 0.75875,-1.491 1.27289,-1.97192 0.22047,-0.20623 1.19878,-0.90731 2.17403,-1.55798 3.19728,-2.13315 5.29048,-3.34026 8.88519,-5.12389 9.82904,-4.87703 20.15816,-7.5643 31.52572,-8.20189 2.36881,-0.13286 10.00549,-0.0547 12.20461,0.12483 11.20525,0.91504 22.3023,3.59213 33.48567,8.07821 3.81372,1.52982 7.03635,2.99371 11.51466,5.23054 2.83794,1.41749 2.93798,1.45199 5.03767,1.73703 1.06148,0.14411 3.29142,0.14408 4.40267,-5e-5 1.90086,-0.24653 5.79278,-1.76541 9.18633,-3.5851 10.20439,-5.47179 18.6611,-13.67748 24.41036,-23.68578 4.65829,-8.109157 7.25187,-17.03122 7.80202,-26.839337 0.28798,-5.134195 -0.27835,-11.401315 -1.56079,-17.272 -0.76521,-3.502948 -3.62484,-16.280418 -3.77681,-16.875616 -0.24758,-0.969679 -0.89736,-3.0972 -1.85361,-6.069051 -0.45699,-1.420283 -1.13021,-3.534833 -1.49604,-4.699 l -0.66513,-2.116667 0.002,-1.227666 c 0.002,-1.431048 0.0651,-1.658607 0.84724,-3.052039 0.68952,-1.228529 2.68451,-4.187484 3.56502,-5.287628 0.97457,-1.217663 3.3208,-3.605728 4.39137,-4.469679 2.32066,-1.872763 5.00201,-3.25932 7.46434,-3.859886 1.97021,-0.480539 2.53279,-0.539554 4.74586,-0.497837 1.8674,0.0352 2.10507,0.05764 3.26905,0.308588 0.69039,0.148844 1.56669,0.368735 1.94733,0.488644 2.65229,0.835508 5.78254,2.546131 8.27961,4.524659 1.17681,0.932429 3.93863,3.670266 4.29413,4.256837 0.36046,0.594755 0.55677,1.171893 1.24206,3.651341 3.51982,12.735272 5.72628,26.22887 6.31313,38.608 0.11646,2.45651 0.0579,14.047563 -0.0802,15.875 -0.62941,8.329007 -1.4222,13.741679 -3.0316,20.697657 -4.13597,17.8761 -12.63165,34.4364 -24.49538,47.74789 -2.46675,2.76777 -6.08863,6.41177 -8.72067,8.77393 -0.53552,0.4806 -1.2032,1.086 -1.48373,1.34534 -0.28055,0.25933 -1.19495,1.04165 -2.032,1.73849 -2.0919,1.74147 -2.26964,1.91797 -2.8115,2.79197 -1.56193,2.51934 -2.3258,5.39259 -2.18926,8.23463 0.0606,1.26158 0.029,1.15386 1.27452,4.34343 4.03896,10.3432 6.46924,20.27532 7.40631,30.26833 0.34639,3.69395 0.38604,4.72106 0.38403,9.94833 -0.002,5.36629 -0.0684,6.87569 -0.47068,10.71034 -0.92648,8.83118 -3.19442,17.99553 -6.14964,24.84966 -1.06404,2.46788 -1.67205,3.29851 -2.86038,3.90776 -0.69076,0.35414 -0.84398,0.39748 -1.86083,0.52642 l -0.76017,0.0964 -1.06017,1.31904 c -1.29078,1.60598 -2.36697,3.17632 -2.60587,3.80239 -0.0977,0.25612 -0.53966,1.49437 -0.98209,2.75167 -3.20272,9.10156 -7.17863,17.61365 -11.87886,25.43159 -1.21954,2.02848 -3.79634,5.97523 -5.00968,7.67308 -3.88525,5.43666 -10.0442,12.78863 -16.31338,19.47333 -1.86102,1.98437 -8.8973,9.02331 -10.79533,10.79941 -16.49186,15.43241 -34.21596,27.99468 -54.52462,38.64526 -14.67856,7.69797 -32.30384,14.9186 -45.85194,18.78439 -15.096667,4.30766 -31.641558,6.78039 -49.652063,7.4208 -2.668439,0.0949 -15.209037,0.0901 -17.991667,-0.007 z m -78.359,-89.06014 c 5.215332,-0.28486 9.53682,-0.69332 13.97,-1.32044 20.3421322,-2.87761 38.923883,-9.87549 55.753,-20.99655 17.961941,-11.86965 33.823385,-28.57632 46.537288,-49.01716 6.732744,-10.8246 12.35522,-22.21047 16.723766,-33.86667 1.037141,-2.7673 2.467542,-7.06967 2.350448,-7.06967 -0.02019,0 -0.727134,1.38113 -1.570981,3.06917 -11.342548,22.68969 -24.389749,41.13231 -39.966443,56.49383 -14.729477,14.52601 -31.160652,25.67046 -49.5587443,33.61325 -24.8216077,10.71593 -52.8136107,15.2433 -82.1689997,13.28985 -11.813998,-0.78615 -22.973306,-2.51522 -33.901367,-5.2528 -1.3928,-0.34891 -2.5739,-0.62053 -2.62467,-0.6036 -0.1405,0.0469 3.47463,1.22041 7.18904,2.33373 18.456441,5.53193 35.584186,8.59438 52.154663,9.3253 1.1176,0.0493 2.3749,0.10225 2.794,0.11768 1.557748,0.0574 10.726166,-0.0289 12.319,-0.11592 z M 254.75333,245.07212 c -0.0336,-0.0582 -0.29575,-0.42969 -0.58266,-0.8255 -5.1803,-7.14665 -10.01585,-15.78784 -13.31078,-23.78653 -4.07896,-9.90194 -6.57792,-20.69342 -6.76524,-29.21481 -0.0632,-2.87406 -0.12175,-2.9853 -0.53974,-1.02496 -1.24626,5.84489 -3.34519,11.70811 -6.30484,17.61207 -3.2966,6.57611 -7.9275,13.42788 -12.96626,19.18456 -1.29865,1.48369 -3.7301,4.02167 -3.85286,4.02167 -0.19352,0 -2.26281,-4.04204 -3.2075,-6.26534 -4.24597,-9.99279 -5.72786,-21.94541 -4.23028,-34.12066 0.37483,-3.04732 0.98984,-6.35646 1.64838,-8.86926 0.16177,-0.61724 0.29412,-1.16017 0.29412,-1.2065 0,-0.19503 -0.24691,-0.0339 -1.342,0.8756 -13.58137,11.27999 -26.28588,17.75823 -37.05434,18.89459 -2.29342,0.24202 -5.47263,0.13235 -7.32396,-0.25263 -0.73378,-0.1526 -1.68554,-0.45017 -1.84549,-0.577 -0.12511,-0.0992 -0.0937,-1.06379 0.11921,-3.65732 0.93333,-11.37072 5.65878,-21.94024 13.87361,-31.03147 2.5551,-2.82769 5.96757,-5.86089 8.94942,-7.95475 0.56642,-0.39774 1.04481,-0.76806 1.06311,-0.82294 0.0382,-0.11448 0.0552,-0.11187 -2.68623,-0.41024 -9.23031,-1.0046 -18.82112,-2.96464 -27.14936,-5.54841 -8.01538,-2.48671 -16.0576,-6.05182 -21.93299,-9.72288 -0.60397,-0.37736 -1.15179,-0.68589 -1.21739,-0.6856 -0.0656,0 -0.024,0.0518 0.0924,0.11448 0.11641,0.0627 0.80486,0.47729 1.5299,0.92136 5.08553,3.11483 11.40166,6.02831 18.07043,8.33545 9.24993,3.20011 19.59314,5.45226 30.80882,6.70836 1.25189,0.14021 2.2943,0.27306 2.31647,0.29523 0.0222,0.0222 -0.14225,0.16629 -0.36537,0.32029 -6.50566,4.48985 -12.26852,10.69406 -16.49997,17.76364 -0.90956,1.5196 -2.56452,4.84062 -3.31206,6.64633 -1.19892,2.89602 -2.40522,6.96418 -2.94991,9.94833 -0.45031,2.46718 -0.71862,4.86542 -0.85883,7.67665 l -0.0556,1.11496 0.25518,0.13196 c 0.58994,0.30508 2.20359,0.65383 3.7737,0.81562 1.29464,0.1334 4.89603,0.0612 6.23391,-0.125 10.84597,-1.50943 22.94203,-7.81664 36.44664,-19.00427 0.46436,-0.38469 0.85657,-0.66261 0.87159,-0.61758 0.015,0.045 -0.14359,0.78165 -0.35244,1.63693 -2.06355,8.45076 -2.59682,17.99274 -1.48515,26.57407 0.86896,6.7078 2.69743,12.91521 5.46573,18.55548 1.07802,2.1964 1.89526,3.62718 2.07181,3.62718 0.0815,0 0.73674,-0.61912 1.45604,-1.37583 3.75287,-3.94804 6.72262,-7.67756 9.92737,-12.46717 5.88353,-8.79315 9.83567,-17.84881 11.85189,-27.1566 0.0781,-0.36077 0.17639,-0.63475 0.21831,-0.60884 0.0419,0.0259 0.0766,0.56873 0.0771,1.20627 0.002,2.85297 0.49318,7.34065 1.22945,11.23451 2.45997,13.00962 8.17002,26.47155 16.48697,38.86949 1.26634,1.88771 3.00857,4.35284 3.07637,4.35284 0.0244,0 0.0169,-0.0476 -0.0166,-0.10583 z"
           style="fill:#ea0000;stroke-width:0.08466667" />
        <path
           inkscape:connector-curvature="0"
           id="path888"
           d="m 42.587333,392.32191 c -34.2389626,-1.1932 -69.272988,-9.01861 -100.564848,-22.46277 -21.927744,-9.42098 -41.205375,-21.14519 -57.740195,-35.11627 -3.69584,-3.12279 -6.95907,-6.12744 -10.97334,-10.1038 -5.03066,-4.98315 -8.72367,-9.01649 -12.75381,-13.92912 -4.52342,-5.51393 -7.28298,-10.5477 -8.47075,-15.45167 -0.42415,-1.75119 -0.54739,-2.76882 -0.54739,-4.51992 0,-3.34689 0.69788,-5.78395 2.38012,-8.31159 0.77577,-1.16562 2.37154,-2.72974 3.69651,-3.62316 1.11614,-0.75261 3.09451,-1.75494 4.46437,-2.26183 1.7942,-0.66392 4.79181,-1.30092 7.62347,-1.62004 1.9421,-0.21886 8.24144,-0.21752 10.6222,0.002 5.52168,0.50976 10.96452,1.5198 20.150663,3.73942 8.454057,2.04272 11.984,2.85347 14.520334,3.33498 9.936175,1.88633 20.695335,2.34884 31.665333,1.36122 21.391042,-1.92581 44.2335751,-9.4362 66.04,-21.71326 5.518345,-3.10685 11.439144,-6.87053 16.51,-10.49493 14.570083,-10.41401 26.642966,-21.97843 36.244293,-34.71783 6.203027,-8.23042 10.710892,-15.90641 15.047146,-25.62227 7.006878,-15.6997 14.488372,-27.9894 22.798511,-37.45067 1.46243,-1.665 4.39939,-4.68089 6.04705,-6.20954 0.62865,-0.58325 1.37055,-1.27339 1.64867,-1.53366 0.5229,-0.48932 1.30936,-1.15516 3.26598,-2.76505 1.0713,-0.88147 1.18486,-1.00479 1.91011,-2.07433 0.4241,-0.62543 1.10127,-1.66496 1.50481,-2.31005 l 0.73371,-1.17292 -0.18848,-0.64742 c -0.26715,-0.91772 -0.26627,-2.13304 0.002,-2.89109 0.2474,-0.69884 0.75875,-1.491 1.27289,-1.97192 0.22047,-0.20623 1.19878,-0.90731 2.17403,-1.55798 3.19728,-2.13315 5.29048,-3.34026 8.88519,-5.12389 9.82904,-4.87703 20.15816,-7.5643 31.52572,-8.20189 2.36881,-0.13286 10.00549,-0.0547 12.20461,0.12483 11.20525,0.91504 22.3023,3.59213 33.48567,8.07821 3.81372,1.52982 7.03635,2.99371 11.51466,5.23054 2.83794,1.41749 2.93798,1.45199 5.03767,1.73703 1.06148,0.14411 3.29142,0.14408 4.40267,-5e-5 1.90086,-0.24653 5.79278,-1.76541 9.18633,-3.5851 10.20439,-5.47179 18.6611,-13.67748 24.41036,-23.68578 4.65829,-8.109157 7.25187,-17.03122 7.80202,-26.839337 0.28798,-5.134195 -0.27835,-11.401315 -1.56079,-17.272 -0.76521,-3.502948 -3.62484,-16.280418 -3.77681,-16.875616 -0.24758,-0.969679 -0.89736,-3.0972 -1.85361,-6.069051 -0.45699,-1.420283 -1.13021,-3.534833 -1.49604,-4.699 l -0.66513,-2.116667 0.002,-1.227666 c 0.002,-1.431048 0.0651,-1.658607 0.84724,-3.052039 0.68952,-1.228529 2.68451,-4.187484 3.56502,-5.287628 0.97457,-1.217663 3.3208,-3.605728 4.39137,-4.469679 2.32066,-1.872763 5.00201,-3.25932 7.46434,-3.859886 1.97021,-0.480539 2.53279,-0.539554 4.74586,-0.497837 1.8674,0.0352 2.10507,0.05764 3.26905,0.308588 0.69039,0.148844 1.56669,0.368735 1.94733,0.488644 2.65229,0.835508 5.78254,2.546131 8.27961,4.524659 1.17681,0.932429 3.93863,3.670266 4.29413,4.256837 0.36046,0.594755 0.55677,1.171893 1.24206,3.651341 3.51982,12.735272 5.72628,26.22887 6.31313,38.608 0.11646,2.45651 0.0579,14.047563 -0.0802,15.875 -0.62941,8.329007 -1.4222,13.741679 -3.0316,20.697657 -4.13597,17.8761 -12.63165,34.4364 -24.49538,47.74789 -2.46675,2.76777 -6.08863,6.41177 -8.72067,8.77393 -0.53552,0.4806 -1.2032,1.086 -1.48373,1.34534 -0.28055,0.25933 -1.19495,1.04165 -2.032,1.73849 -2.0919,1.74147 -2.26964,1.91797 -2.8115,2.79197 -1.56193,2.51934 -2.3258,5.39259 -2.18926,8.23463 0.0606,1.26158 0.029,1.15386 1.27452,4.34343 4.03896,10.3432 6.46924,20.27532 7.40631,30.26833 0.34639,3.69395 0.38604,4.72106 0.38403,9.94833 -0.002,5.36629 -0.0684,6.87569 -0.47068,10.71034 -0.92648,8.83118 -3.19442,17.99553 -6.14964,24.84966 -1.06404,2.46788 -1.67205,3.29851 -2.86038,3.90776 -0.69076,0.35414 -0.84398,0.39748 -1.86083,0.52642 l -0.76017,0.0964 -1.06017,1.31904 c -1.29078,1.60598 -2.36697,3.17632 -2.60587,3.80239 -0.0977,0.25612 -0.53966,1.49437 -0.98209,2.75167 -3.20272,9.10156 -7.17863,17.61365 -11.87886,25.43159 -1.21954,2.02848 -3.79634,5.97523 -5.00968,7.67308 -3.88525,5.43666 -10.0442,12.78863 -16.31338,19.47333 -1.86102,1.98437 -8.8973,9.02331 -10.79533,10.79941 -16.49186,15.43241 -34.21596,27.99468 -54.52462,38.64526 -14.67856,7.69797 -32.30384,14.9186 -45.85194,18.78439 -15.096667,4.30766 -31.641558,6.78039 -49.652063,7.4208 -2.668439,0.0949 -15.209037,0.0901 -17.991667,-0.007 z M -9.5097431,326.97931 C 24.359116,309.61729 86.3219,277.85528 128.18533,256.39705 c 41.86344,-21.45822 76.12653,-39.02365 76.14021,-39.03428 0.0137,-0.0106 -0.1078,-0.5479 -0.26993,-1.19391 -1.76542,-7.03383 -2.32155,-15.62698 -1.52806,-23.61124 0.37502,-3.7735 1.14878,-8.23569 1.89369,-10.92078 0.0902,-0.3253 0.1538,-0.60174 0.14123,-0.61431 -0.0126,-0.0126 -0.61002,0.4584 -1.32766,1.0466 -13.6447,11.18351 -26.14095,17.47021 -36.8554,18.54148 -2.59218,0.25917 -5.89341,0.0785 -7.82973,-0.42857 -1.01171,-0.26493 -1.42913,-0.45736 -1.48631,-0.68518 -0.0733,-0.29218 0.0927,-2.9998 0.2957,-4.82258 0.52477,-4.71181 1.63521,-9.1463 3.38967,-13.5366 0.72964,-1.8258 2.70494,-5.76194 3.77626,-7.52489 3.8,-6.25317 8.81152,-11.78981 14.62967,-16.16256 0.46566,-0.34999 1.07253,-0.7855 1.34859,-0.96781 l 0.50193,-0.33147 -0.41726,-0.063 c -0.2295,-0.0346 -1.27451,-0.1604 -2.32226,-0.27948 -5.20478,-0.59155 -10.98713,-1.54443 -15.70567,-2.58814 -8.62033,-1.90677 -16.58672,-4.49674 -23.53733,-7.65228 -3.20183,-1.4536 -7.19029,-3.57032 -9.70464,-5.15034 -0.49461,-0.31082 -0.9376,-0.56512 -0.9844,-0.56512 -0.14691,0 -2.47143,1.08527 -3.5773,1.67017 -3.89372,2.05939 -7.79199,4.80399 -11.557,8.13675 -1.37813,1.21992 -4.51596,4.35911 -5.81155,5.81408 -8.439802,9.47803 -15.807885,21.54015 -22.902766,37.49362 -2.442777,5.49279 -4.6043,9.69788 -7.296785,14.19538 -8.972711,14.98794 -21.422614,28.95805 -36.717562,41.20097 -12.927178,10.34764 -27.422433,19.11862 -42.9683337,25.99986 -16.5575573,7.32903 -34.0611803,12.03372 -50.1650003,13.48353 -3.909491,0.35197 -5.763759,0.43994 -10.244666,0.48607 -6.021722,0.062 -9.824128,-0.11426 -15.113,-0.70046 -5.670135,-0.62848 -9.626668,-1.42152 -21.039667,-4.21722 -11.86552,-2.90654 -17.69569,-3.92259 -24.11357,-4.2024 -5.21966,-0.22757 -10.46461,0.43603 -13.7555,1.74036 -3.92933,1.55738 -6.1878,3.965 -6.88282,7.33736 -0.92244,4.47586 0.97922,10.16766 5.53858,16.57726 1.54157,2.16717 5.35641,6.7114 8.84908,10.541 1.88577,2.0677 8.2523,8.41022 10.59456,10.55462 12.37854,11.33286 25.991112,20.94661 41.910003,29.59856 1.666748,0.90588 5.676164,2.97678 5.772591,2.98161 0.03167,0.002 27.768473,-14.20241 61.6373329,-31.56443 z M 254.75333,245.07212 c -0.0336,-0.0582 -0.29575,-0.42969 -0.58266,-0.8255 -5.1803,-7.14665 -10.01585,-15.78784 -13.31078,-23.78653 -4.07896,-9.90194 -6.57792,-20.69342 -6.76524,-29.21481 -0.0632,-2.87406 -0.12175,-2.9853 -0.53974,-1.02496 -1.24626,5.84489 -3.34519,11.70811 -6.30484,17.61207 -3.2966,6.57611 -7.9275,13.42788 -12.96626,19.18456 -1.29865,1.48369 -3.7301,4.02167 -3.85286,4.02167 -0.19352,0 -2.26281,-4.04204 -3.2075,-6.26534 -4.24597,-9.99279 -5.72786,-21.94541 -4.23028,-34.12066 0.37483,-3.04732 0.98984,-6.35646 1.64838,-8.86926 0.16177,-0.61724 0.29412,-1.16017 0.29412,-1.2065 0,-0.19503 -0.24691,-0.0339 -1.342,0.8756 -13.58137,11.27999 -26.28588,17.75823 -37.05434,18.89459 -2.29342,0.24202 -5.47263,0.13235 -7.32396,-0.25263 -0.73378,-0.1526 -1.68554,-0.45017 -1.84549,-0.577 -0.12511,-0.0992 -0.0937,-1.06379 0.11921,-3.65732 0.93333,-11.37072 5.65878,-21.94024 13.87361,-31.03147 2.5551,-2.82769 5.96757,-5.86089 8.94942,-7.95475 0.56642,-0.39774 1.04481,-0.76806 1.06311,-0.82294 0.0382,-0.11448 0.0552,-0.11187 -2.68623,-0.41024 -9.23031,-1.0046 -18.82112,-2.96464 -27.14936,-5.54841 -8.01538,-2.48671 -16.0576,-6.05182 -21.93299,-9.72288 -0.60397,-0.37736 -1.15179,-0.68589 -1.21739,-0.6856 -0.0656,0 -0.024,0.0518 0.0924,0.11448 0.11641,0.0627 0.80486,0.47729 1.5299,0.92136 5.08553,3.11483 11.40166,6.02831 18.07043,8.33545 9.24993,3.20011 19.59314,5.45226 30.80882,6.70836 1.25189,0.14021 2.2943,0.27306 2.31647,0.29523 0.0222,0.0222 -0.14225,0.16629 -0.36537,0.32029 -6.50566,4.48985 -12.26852,10.69406 -16.49997,17.76364 -0.90956,1.5196 -2.56452,4.84062 -3.31206,6.64633 -1.19892,2.89602 -2.40522,6.96418 -2.94991,9.94833 -0.45031,2.46718 -0.71862,4.86542 -0.85883,7.67665 l -0.0556,1.11496 0.25518,0.13196 c 0.58994,0.30508 2.20359,0.65383 3.7737,0.81562 1.29464,0.1334 4.89603,0.0612 6.23391,-0.125 10.84597,-1.50943 22.94203,-7.81664 36.44664,-19.00427 0.46436,-0.38469 0.85657,-0.66261 0.87159,-0.61758 0.015,0.045 -0.14359,0.78165 -0.35244,1.63693 -2.06355,8.45076 -2.59682,17.99274 -1.48515,26.57407 0.86896,6.7078 2.69743,12.91521 5.46573,18.55548 1.07802,2.1964 1.89526,3.62718 2.07181,3.62718 0.0815,0 0.73674,-0.61912 1.45604,-1.37583 3.75287,-3.94804 6.72262,-7.67756 9.92737,-12.46717 5.88353,-8.79315 9.83567,-17.84881 11.85189,-27.1566 0.0781,-0.36077 0.17639,-0.63475 0.21831,-0.60884 0.0419,0.0259 0.0766,0.56873 0.0771,1.20627 0.002,2.85297 0.49318,7.34065 1.22945,11.23451 2.45997,13.00962 8.17002,26.47155 16.48697,38.86949 1.26634,1.88771 3.00857,4.35284 3.07637,4.35284 0.0244,0 0.0169,-0.0476 -0.0166,-0.10583 z M 234.8983,201.69124 c 0.0181,-0.015 -0.0664,-0.6475 -0.18776,-1.40548 -0.46124,-2.87982 -0.77191,-5.82601 -0.88601,-8.4025 l -0.0599,-1.35171 -0.27794,1.24257 c -0.77407,3.46058 -2.63394,9.04917 -4.03391,12.1212 -0.16637,0.36508 -0.30249,0.6805 -0.30249,0.70095 0,0.0313 5.65124,-2.82482 5.74797,-2.90503 z"
           style="fill:#d10000;stroke-width:0.08466667" />
        <path
           inkscape:connector-curvature="0"
           id="path886"
           d="m 42.587333,392.32191 c -34.2389626,-1.1932 -69.272988,-9.01861 -100.564848,-22.46277 -21.927744,-9.42098 -41.205375,-21.14519 -57.740195,-35.11627 -3.69584,-3.12279 -6.95907,-6.12744 -10.97334,-10.1038 -5.03066,-4.98315 -8.72367,-9.01649 -12.75381,-13.92912 -4.52342,-5.51393 -7.28298,-10.5477 -8.47075,-15.45167 -0.42415,-1.75119 -0.54739,-2.76882 -0.54739,-4.51992 0,-3.34689 0.69788,-5.78395 2.38012,-8.31159 0.77577,-1.16562 2.37154,-2.72974 3.69651,-3.62316 1.11614,-0.75261 3.09451,-1.75494 4.46437,-2.26183 1.7942,-0.66392 4.79181,-1.30092 7.62347,-1.62004 1.9421,-0.21886 8.24144,-0.21752 10.6222,0.002 5.52168,0.50976 10.96452,1.5198 20.150663,3.73942 8.454057,2.04272 11.984,2.85347 14.520334,3.33498 9.936175,1.88633 20.695335,2.34884 31.665333,1.36122 21.391042,-1.92581 44.2335751,-9.4362 66.04,-21.71326 5.518345,-3.10685 11.439144,-6.87053 16.51,-10.49493 14.570083,-10.41401 26.642966,-21.97843 36.244293,-34.71783 6.203027,-8.23042 10.710892,-15.90641 15.047146,-25.62227 7.006878,-15.6997 14.488372,-27.9894 22.798511,-37.45067 1.46243,-1.665 4.39939,-4.68089 6.04705,-6.20954 0.62865,-0.58325 1.37055,-1.27339 1.64867,-1.53366 0.5229,-0.48932 1.30936,-1.15516 3.26598,-2.76505 1.0713,-0.88147 1.18486,-1.00479 1.91011,-2.07433 0.4241,-0.62543 1.10127,-1.66496 1.50481,-2.31005 l 0.73371,-1.17292 -0.18848,-0.64742 c -0.26715,-0.91772 -0.26627,-2.13304 0.002,-2.89109 0.2474,-0.69884 0.75875,-1.491 1.27289,-1.97192 0.22047,-0.20623 1.19878,-0.90731 2.17403,-1.55798 3.19728,-2.13315 5.29048,-3.34026 8.88519,-5.12389 9.82904,-4.87703 20.15816,-7.5643 31.52572,-8.20189 2.36881,-0.13286 10.00549,-0.0547 12.20461,0.12483 11.20525,0.91504 22.3023,3.59213 33.48567,8.07821 3.81372,1.52982 7.03635,2.99371 11.51466,5.23054 2.83794,1.41749 2.93798,1.45199 5.03767,1.73703 1.06148,0.14411 3.29142,0.14408 4.40267,-5e-5 1.90086,-0.24653 5.79278,-1.76541 9.18633,-3.5851 10.20439,-5.47179 18.6611,-13.67748 24.41036,-23.68578 4.65829,-8.109157 7.25187,-17.03122 7.80202,-26.839337 0.28798,-5.134195 -0.27835,-11.401315 -1.56079,-17.272 -0.76521,-3.502948 -3.62484,-16.280418 -3.77681,-16.875616 -0.24758,-0.969679 -0.89736,-3.0972 -1.85361,-6.069051 -0.45699,-1.420283 -1.13021,-3.534833 -1.49604,-4.699 l -0.66513,-2.116667 0.002,-1.227666 c 0.002,-1.431048 0.0651,-1.658607 0.84724,-3.052039 0.68952,-1.228529 2.68451,-4.187484 3.56502,-5.287628 0.97457,-1.217663 3.3208,-3.605728 4.39137,-4.469679 2.32066,-1.872763 5.00201,-3.25932 7.46434,-3.859886 1.97021,-0.480539 2.53279,-0.539554 4.74586,-0.497837 1.8674,0.0352 2.10507,0.05764 3.26905,0.308588 0.69039,0.148844 1.56669,0.368735 1.94733,0.488644 2.65229,0.835508 5.78254,2.546131 8.27961,4.524659 1.17681,0.932429 3.93863,3.670266 4.29413,4.256837 0.36046,0.594755 0.55677,1.171893 1.24206,3.651341 3.51982,12.735272 5.72628,26.22887 6.31313,38.608 0.11646,2.45651 0.0579,14.047563 -0.0802,15.875 -0.62941,8.329007 -1.4222,13.741679 -3.0316,20.697657 -4.13597,17.8761 -12.63165,34.4364 -24.49538,47.74789 -2.46675,2.76777 -6.08863,6.41177 -8.72067,8.77393 -0.53552,0.4806 -1.2032,1.086 -1.48373,1.34534 -0.28055,0.25933 -1.19495,1.04165 -2.032,1.73849 -2.0919,1.74147 -2.26964,1.91797 -2.8115,2.79197 -1.56193,2.51934 -2.3258,5.39259 -2.18926,8.23463 0.0606,1.26158 0.029,1.15386 1.27452,4.34343 4.03896,10.3432 6.46924,20.27532 7.40631,30.26833 0.34639,3.69395 0.38604,4.72106 0.38403,9.94833 -0.002,5.36629 -0.0684,6.87569 -0.47068,10.71034 -0.92648,8.83118 -3.19442,17.99553 -6.14964,24.84966 -1.06404,2.46788 -1.67205,3.29851 -2.86038,3.90776 -0.69076,0.35414 -0.84398,0.39748 -1.86083,0.52642 l -0.76017,0.0964 -1.06017,1.31904 c -1.29078,1.60598 -2.36697,3.17632 -2.60587,3.80239 -0.0977,0.25612 -0.53966,1.49437 -0.98209,2.75167 -3.20272,9.10156 -7.17863,17.61365 -11.87886,25.43159 -1.21954,2.02848 -3.79634,5.97523 -5.00968,7.67308 -3.88525,5.43666 -10.0442,12.78863 -16.31338,19.47333 -1.86102,1.98437 -8.8973,9.02331 -10.79533,10.79941 -16.49186,15.43241 -34.21596,27.99468 -54.52462,38.64526 -14.67856,7.69797 -32.30384,14.9186 -45.85194,18.78439 -15.096667,4.30766 -31.641558,6.78039 -49.652063,7.4208 -2.668439,0.0949 -15.209037,0.0901 -17.991667,-0.007 z m 17.272,-4.31035 c 14.790166,-0.53135 28.035454,-2.20969 40.822067,-5.17268 7.04428,-1.63233 12.93271,-3.39116 20.30727,-6.06564 42.64164,-15.46449 78.72182,-40.32391 106.0814,-73.09062 4.28155,-5.12772 6.62244,-8.21886 9.29697,-12.27667 6.85723,-10.40381 12.57474,-22.85291 15.8456,-34.50167 1.01066,-3.59933 1.64763,-6.50052 2.45971,-11.20322 l 0.10706,-0.61988 -0.56447,-0.77712 c -5.19859,-7.15706 -10.04691,-15.81317 -13.35505,-23.84397 -4.07896,-9.90194 -6.57792,-20.69342 -6.76524,-29.21481 -0.0632,-2.87406 -0.12175,-2.9853 -0.53974,-1.02496 -1.24626,5.84489 -3.34519,11.70811 -6.30484,17.61207 -3.2966,6.57611 -7.9275,13.42788 -12.96626,19.18456 -1.29865,1.48369 -3.7301,4.02167 -3.85286,4.02167 -0.19352,0 -2.26281,-4.04204 -3.2075,-6.26534 -4.24597,-9.99279 -5.72786,-21.94541 -4.23028,-34.12066 0.37483,-3.04732 0.98984,-6.35646 1.64838,-8.86926 0.16177,-0.61724 0.29412,-1.16017 0.29412,-1.2065 0,-0.19503 -0.24691,-0.0339 -1.342,0.8756 -13.58137,11.27999 -26.28588,17.75823 -37.05434,18.89459 -2.29342,0.24202 -5.47263,0.13235 -7.32396,-0.25263 -0.73378,-0.1526 -1.68554,-0.45017 -1.84549,-0.577 -0.12511,-0.0992 -0.0937,-1.06379 0.11921,-3.65732 0.93333,-11.37072 5.65878,-21.94024 13.87361,-31.03147 2.5551,-2.82769 5.96757,-5.86089 8.94942,-7.95475 0.56642,-0.39774 1.04481,-0.76806 1.06311,-0.82294 0.0382,-0.11448 0.0552,-0.11187 -2.68623,-0.41024 -9.23031,-1.0046 -18.82112,-2.96464 -27.14936,-5.54841 -8.02829,-2.49072 -16.05624,-6.05098 -21.95516,-9.73673 -1.33118,-0.83175 -0.94012,-0.87423 -3.52434,0.38284 -2.20663,1.0734 -3.76127,1.95925 -5.79114,3.29983 -3.70358,2.44597 -6.60175,4.8501 -10.20338,8.46405 -9.43641,9.46866 -17.878843,22.73307 -25.736621,40.43634 -2.397108,5.4006 -4.540258,9.56937 -7.225436,14.05466 -9.792674,16.3576 -23.681682,31.45456 -40.908563,44.46646 -26.9061777,20.32291 -59.395749,33.56548 -88.857667,36.21791 -3.909491,0.35196 -5.763759,0.43994 -10.244666,0.48607 -5.596467,0.0576 -9.167047,-0.0889 -13.927667,-0.5716 -6.242516,-0.6329 -10.056546,-1.36917 -21.420667,-4.13508 -11.369393,-2.76721 -16.098633,-3.67244 -22.013333,-4.21368 -2.07074,-0.18949 -7.41121,-0.21601 -9.10167,-0.0452 -5.47174,0.55287 -9.07213,1.78942 -11.63652,3.99652 -1.29133,1.11141 -2.3952,2.89254 -2.8589,4.61293 -0.21639,0.80282 -0.22828,0.94752 -0.22967,2.794 -10e-4,1.69167 0.0228,2.05849 0.18366,2.794 1.02636,4.69406 3.51241,9.29429 7.93858,14.68966 6.99023,8.52093 14.90281,16.4899 23.65451,23.82312 25.747284,21.57414 59.037828,38.028 96.105343,47.50008 19.0581707,4.87005 38.949376,7.8038 57.742667,8.51647 1.32715,0.0503 2.6797,0.10178 3.005667,0.11434 1.674249,0.0645 13.345388,0.0434 15.324666,-0.0277 z"
           style="fill:#008b38;stroke-width:0.08466667" />
        <path
           inkscape:connector-curvature="0"
           id="path884"
           d="m 42.587333,392.32191 c -34.2389626,-1.1932 -69.272988,-9.01861 -100.564848,-22.46277 -21.927744,-9.42098 -41.205375,-21.14519 -57.740195,-35.11627 -3.69584,-3.12279 -6.95907,-6.12744 -10.97334,-10.1038 -5.03066,-4.98315 -8.72367,-9.01649 -12.75381,-13.92912 -4.52342,-5.51393 -7.28298,-10.5477 -8.47075,-15.45167 -0.42415,-1.75119 -0.54739,-2.76882 -0.54739,-4.51992 0,-3.34689 0.69788,-5.78395 2.38012,-8.31159 0.77577,-1.16562 2.37154,-2.72974 3.69651,-3.62316 1.11614,-0.75261 3.09451,-1.75494 4.46437,-2.26183 1.7942,-0.66392 4.79181,-1.30092 7.62347,-1.62004 1.9421,-0.21886 8.24144,-0.21752 10.6222,0.002 5.52168,0.50976 10.96452,1.5198 20.150663,3.73942 8.454057,2.04272 11.984,2.85347 14.520334,3.33498 9.936175,1.88633 20.695335,2.34884 31.665333,1.36122 21.391042,-1.92581 44.2335751,-9.4362 66.04,-21.71326 5.518345,-3.10685 11.439144,-6.87053 16.51,-10.49493 14.570083,-10.41401 26.642966,-21.97843 36.244293,-34.71783 6.203027,-8.23042 10.710892,-15.90641 15.047146,-25.62227 7.006878,-15.6997 14.488372,-27.9894 22.798511,-37.45067 1.46243,-1.665 4.39939,-4.68089 6.04705,-6.20954 0.62865,-0.58325 1.37055,-1.27339 1.64867,-1.53366 0.5229,-0.48932 1.30936,-1.15516 3.26598,-2.76505 1.0713,-0.88147 1.18486,-1.00479 1.91011,-2.07433 0.4241,-0.62543 1.10127,-1.66496 1.50481,-2.31005 l 0.73371,-1.17292 -0.18848,-0.64742 c -0.26715,-0.91772 -0.26627,-2.13304 0.002,-2.89109 0.2474,-0.69884 0.75875,-1.491 1.27289,-1.97192 0.22047,-0.20623 1.19878,-0.90731 2.17403,-1.55798 3.19728,-2.13315 5.29048,-3.34026 8.88519,-5.12389 9.82904,-4.87703 20.15816,-7.5643 31.52572,-8.20189 2.36881,-0.13286 10.00549,-0.0547 12.20461,0.12483 11.20525,0.91504 22.3023,3.59213 33.48567,8.07821 3.81372,1.52982 7.03635,2.99371 11.51466,5.23054 2.83794,1.41749 2.93798,1.45199 5.03767,1.73703 1.06148,0.14411 3.29142,0.14408 4.40267,-5e-5 1.90086,-0.24653 5.79278,-1.76541 9.18633,-3.5851 10.20439,-5.47179 18.6611,-13.67748 24.41036,-23.68578 4.65829,-8.109157 7.25187,-17.03122 7.80202,-26.839337 0.28798,-5.134195 -0.27835,-11.401315 -1.56079,-17.272 -0.76521,-3.502948 -3.62484,-16.280418 -3.77681,-16.875616 -0.24758,-0.969679 -0.89736,-3.0972 -1.85361,-6.069051 -0.45699,-1.420283 -1.13021,-3.534833 -1.49604,-4.699 l -0.66513,-2.116667 0.002,-1.227666 c 0.002,-1.431048 0.0651,-1.658607 0.84724,-3.052039 0.68952,-1.228529 2.68451,-4.187484 3.56502,-5.287628 0.97457,-1.217663 3.3208,-3.605728 4.39137,-4.469679 2.32066,-1.872763 5.00201,-3.25932 7.46434,-3.859886 1.97021,-0.480539 2.53279,-0.539554 4.74586,-0.497837 1.8674,0.0352 2.10507,0.05764 3.26905,0.308588 0.69039,0.148844 1.56669,0.368735 1.94733,0.488644 2.65229,0.835508 5.78254,2.546131 8.27961,4.524659 1.17681,0.932429 3.93863,3.670266 4.29413,4.256837 0.36046,0.594755 0.55677,1.171893 1.24206,3.651341 3.51982,12.735272 5.72628,26.22887 6.31313,38.608 0.11646,2.45651 0.0579,14.047563 -0.0802,15.875 -0.62941,8.329007 -1.4222,13.741679 -3.0316,20.697657 -4.13597,17.8761 -12.63165,34.4364 -24.49538,47.74789 -2.46675,2.76777 -6.08863,6.41177 -8.72067,8.77393 -0.53552,0.4806 -1.2032,1.086 -1.48373,1.34534 -0.28055,0.25933 -1.19495,1.04165 -2.032,1.73849 -2.0919,1.74147 -2.26964,1.91797 -2.8115,2.79197 -1.56193,2.51934 -2.3258,5.39259 -2.18926,8.23463 0.0606,1.26158 0.029,1.15386 1.27452,4.34343 4.03896,10.3432 6.46924,20.27532 7.40631,30.26833 0.34639,3.69395 0.38604,4.72106 0.38403,9.94833 -0.002,5.36629 -0.0684,6.87569 -0.47068,10.71034 -0.92648,8.83118 -3.19442,17.99553 -6.14964,24.84966 -1.06404,2.46788 -1.67205,3.29851 -2.86038,3.90776 -0.69076,0.35414 -0.84398,0.39748 -1.86083,0.52642 l -0.76017,0.0964 -1.06017,1.31904 c -1.29078,1.60598 -2.36697,3.17632 -2.60587,3.80239 -0.0977,0.25612 -0.53966,1.49437 -0.98209,2.75167 -3.20272,9.10156 -7.17863,17.61365 -11.87886,25.43159 -1.21954,2.02848 -3.79634,5.97523 -5.00968,7.67308 -3.88525,5.43666 -10.0442,12.78863 -16.31338,19.47333 -1.86102,1.98437 -8.8973,9.02331 -10.79533,10.79941 -16.49186,15.43241 -34.21596,27.99468 -54.52462,38.64526 -14.67856,7.69797 -32.30384,14.9186 -45.85194,18.78439 -15.096667,4.30766 -31.641558,6.78039 -49.652063,7.4208 -2.668439,0.0949 -15.209037,0.0901 -17.991667,-0.007 z m 17.272,-4.31035 c 14.790166,-0.53135 28.035454,-2.20969 40.822067,-5.17268 7.04428,-1.63233 12.93271,-3.39116 20.30727,-6.06564 42.64164,-15.46449 78.72182,-40.32391 106.0814,-73.09062 4.28155,-5.12772 6.62244,-8.21886 9.29697,-12.27667 6.85723,-10.40381 12.57474,-22.85291 15.8456,-34.50167 1.01066,-3.59933 1.64763,-6.50052 2.45971,-11.20322 l 0.10706,-0.61988 -0.56447,-0.77712 c -5.19859,-7.15706 -10.04691,-15.81317 -13.35505,-23.84397 -4.07896,-9.90194 -6.57792,-20.69342 -6.76524,-29.21481 -0.0632,-2.87406 -0.12175,-2.9853 -0.53974,-1.02496 -1.24626,5.84489 -3.34519,11.70811 -6.30484,17.61207 -3.2966,6.57611 -7.9275,13.42788 -12.96626,19.18456 -1.29865,1.48369 -3.7301,4.02167 -3.85286,4.02167 -0.19352,0 -2.26281,-4.04204 -3.2075,-6.26534 -4.24597,-9.99279 -5.72786,-21.94541 -4.23028,-34.12066 0.37483,-3.04732 0.98984,-6.35646 1.64838,-8.86926 0.16177,-0.61724 0.29412,-1.16017 0.29412,-1.2065 0,-0.19503 -0.24691,-0.0339 -1.342,0.8756 -13.58137,11.27999 -26.28588,17.75823 -37.05434,18.89459 -0.73443,0.0775 -1.89389,0.11969 -3.048,0.1109 l -1.86266,-0.0142 2.32833,-0.0589 c 3.68708,-0.0933 6.32121,-0.5386 10.24467,-1.73198 7.18087,-2.18416 15.40807,-6.66616 23.83366,-12.98406 1.09606,-0.82186 5.08978,-3.9793 5.3786,-4.2523 0.40758,-0.38527 1.24533,-1.07071 1.36008,-1.11282 0.0741,-0.0272 0.18572,-0.0179 0.24811,0.0207 0.0913,0.0564 0.0203,0.44759 -0.36327,2.00301 -0.69394,2.81377 -1.1334,5.18038 -1.49876,8.07123 -0.36627,2.89799 -0.62264,6.78571 -0.57905,8.78105 l 0.0263,1.20337 11.32776,-31.1224 c 6.23026,-17.11732 11.31661,-31.13242 11.303,-31.14466 -0.0136,-0.0122 -0.34016,0.0354 -0.72564,0.10595 l -0.70088,0.12821 -0.82312,-0.55093 c -3.0206,-2.02178 -9.11214,-5.17125 -14.32745,-7.40764 -24.9912,-10.71655 -49.73691,-12.04622 -70.52733,-3.78965 -5.06619,2.01195 -10.95051,5.14176 -15.02133,7.98969 l -0.67034,0.46896 0.56787,0.52752 c 0.8021,0.74511 2.36412,1.94187 4.02541,3.0841 l 1.42326,0.97859 -0.49351,0.19136 c -0.7855,0.30459 -3.738,1.78791 -4.9867,2.50531 -1.49432,0.85851 -3.97433,2.49946 -5.461,3.6134 -2.69146,2.01667 -4.69637,3.77667 -7.45171,6.54143 -9.43641,9.46866 -17.878843,22.73307 -25.736621,40.43634 -2.397108,5.4006 -4.540258,9.56937 -7.225436,14.05466 -9.792674,16.3576 -23.681682,31.45456 -40.908563,44.46646 -26.9061777,20.32291 -59.395749,33.56548 -88.857667,36.21791 -3.909491,0.35196 -5.763759,0.43994 -10.244666,0.48607 -5.596467,0.0576 -9.167047,-0.0889 -13.927667,-0.5716 -6.242516,-0.6329 -10.056546,-1.36917 -21.420667,-4.13508 -11.369393,-2.76721 -16.098633,-3.67244 -22.013333,-4.21368 -2.07074,-0.18949 -7.41121,-0.21601 -9.10167,-0.0452 -5.47174,0.55287 -9.07213,1.78942 -11.63652,3.99652 -1.29133,1.11141 -2.3952,2.89254 -2.8589,4.61293 -0.21639,0.80282 -0.22828,0.94752 -0.22967,2.794 -10e-4,1.69167 0.0228,2.05849 0.18366,2.794 1.02636,4.69406 3.51241,9.29429 7.93858,14.68966 6.99023,8.52093 14.90281,16.4899 23.65451,23.82312 25.747284,21.57414 59.037828,38.028 96.105343,47.50008 19.0581707,4.87005 38.949376,7.8038 57.742667,8.51647 1.32715,0.0503 2.6797,0.10178 3.005667,0.11434 1.674249,0.0645 13.345388,0.0434 15.324666,-0.0277 z M 161.01599,200.32853 c 0.12871,-0.0195 0.31921,-0.0189 0.42334,0.001 0.10414,0.0201 -0.001,0.036 -0.234,0.0354 -0.23283,-8.5e-4 -0.31803,-0.0171 -0.18934,-0.0366 z m -0.71983,-0.0838 c 0.10531,-0.0203 0.25771,-0.0195 0.33866,0.002 0.081,0.0212 -0.005,0.0378 -0.19149,0.0368 -0.18626,-9.3e-4 -0.2525,-0.0183 -0.14717,-0.0385 z m -0.86883,-0.10945 c -0.22656,-0.0576 -0.23114,-0.0646 -0.0423,-0.0646 0.11642,0 0.32597,0.0291 0.46567,0.0646 0.22656,0.0576 0.23114,0.0646 0.0423,0.0646 -0.11642,0 -0.32597,-0.0291 -0.46567,-0.0646 z m -0.93133,-0.20929 c -0.45469,-0.14985 -0.27571,-0.1557 0.254,-0.008 0.23283,0.0648 0.34713,0.11827 0.254,0.11886 -0.0931,8.4e-4 -0.32173,-0.0492 -0.508,-0.11055 z m -1.13754,-0.41913 c -0.0579,-0.0698 -0.0865,-0.29236 -0.068,-0.52916 l 0.032,-0.40875 0.0153,0.44029 c 0.0111,0.31878 0.0562,0.46411 0.16343,0.5266 0.0815,0.0475 0.1052,0.0875 0.0527,0.0889 -0.0525,0.001 -0.14043,-0.0516 -0.1954,-0.11785 z m 0.0251,-1.82691 c 0,-0.44238 0.0143,-0.62336 0.0317,-0.40217 0.0174,0.2212 0.0174,0.58315 0,0.80434 -0.0174,0.22119 -0.0317,0.0402 -0.0317,-0.40217 z m 0.0804,-1.397 c 8.5e-4,-0.2794 0.0163,-0.38349 0.0351,-0.23132 0.0188,0.15218 0.0185,0.38078 -8.4e-4,0.508 -0.0193,0.12723 -0.0347,0.003 -0.0343,-0.27668 z m 0.0827,-1.016 c 8.4e-4,-0.23283 0.0171,-0.31803 0.0365,-0.18934 0.0195,0.1287 0.0189,0.3192 -0.001,0.42333 -0.0201,0.10414 -0.036,-0.001 -0.0354,-0.23399 z m 0.0835,-0.80433 c 0,-0.20955 0.0165,-0.29528 0.0367,-0.1905 0.0202,0.10477 0.0202,0.27622 0,0.381 -0.0202,0.10477 -0.0367,0.019 -0.0367,-0.1905 z m 0.0781,-0.71967 c 0.002,-0.1397 0.0207,-0.1866 0.0422,-0.10422 0.0215,0.0824 0.0201,0.19668 -0.003,0.254 -0.0232,0.0573 -0.0408,-0.0101 -0.039,-0.14978 z m 0.0878,-0.635 c 0,-0.16298 0.0174,-0.22966 0.0387,-0.14817 0.0213,0.0815 0.0213,0.21485 0,0.29634 -0.0213,0.0815 -0.0387,0.0148 -0.0387,-0.14817 z m 0.0784,-0.59267 c 0,-0.11641 0.0192,-0.16404 0.0427,-0.10583 0.0235,0.0582 0.0235,0.15346 0,0.21167 -0.0235,0.0582 -0.0427,0.0106 -0.0427,-0.10584 z m 0.0847,-0.508 c 0,-0.11641 0.0192,-0.16404 0.0427,-0.10583 0.0235,0.0582 0.0235,0.15346 0,0.21167 -0.0235,0.0582 -0.0427,0.0106 -0.0427,-0.10584 z m 0.0847,-0.508 c 0,-0.11641 0.0192,-0.16404 0.0427,-0.10583 0.0235,0.0582 0.0235,0.15346 0,0.21167 -0.0235,0.0582 -0.0427,0.0106 -0.0427,-0.10584 z m 0.0847,-0.508 c 0,-0.11641 0.0192,-0.16404 0.0427,-0.10583 0.0235,0.0582 0.0235,0.15346 0,0.21167 -0.0235,0.0582 -0.0427,0.0106 -0.0427,-0.10584 z m 0.0847,-0.42333 c 0,-0.11642 0.0192,-0.16404 0.0427,-0.10583 0.0235,0.0582 0.0235,0.15346 0,0.21166 -0.0235,0.0582 -0.0427,0.0106 -0.0427,-0.10583 z m 0.0847,-0.42333 c 0,-0.11642 0.0192,-0.16404 0.0427,-0.10584 0.0235,0.0582 0.0235,0.15346 0,0.21167 -0.0235,0.0582 -0.0427,0.0106 -0.0427,-0.10583 z m 0.0847,-0.42334 c 0,-0.11641 0.0192,-0.16404 0.0427,-0.10583 0.0235,0.0582 0.0235,0.15346 0,0.21167 -0.0235,0.0582 -0.0427,0.0106 -0.0427,-0.10584 z m 0.0847,-0.42333 c 0,-0.11642 0.0192,-0.16404 0.0427,-0.10583 0.0235,0.0582 0.0235,0.15346 0,0.21166 -0.0235,0.0582 -0.0427,0.0106 -0.0427,-0.10583 z m 0.078,-0.38805 c 0.004,-0.0986 0.0241,-0.1187 0.0512,-0.0512 0.0245,0.0611 0.0214,0.13415 -0.007,0.16228 -0.0281,0.0281 -0.0482,-0.0219 -0.0445,-0.11112 z m 0.0847,-0.33867 c 0.004,-0.0986 0.0241,-0.11869 0.0512,-0.0512 0.0245,0.0611 0.0215,0.13414 -0.007,0.16228 -0.0281,0.0281 -0.0481,-0.0219 -0.0445,-0.11113 z m 0.0856,-0.27188 c -0.0114,-0.16393 0.27226,-1.25297 0.30162,-1.15783 0.0139,0.0451 -0.0465,0.3488 -0.13433,0.67476 -0.0878,0.32597 -0.16309,0.54335 -0.16729,0.48307 z m 0.3377,-1.42145 c 0.004,-0.0986 0.0241,-0.1187 0.0512,-0.0512 0.0245,0.0611 0.0214,0.13415 -0.007,0.16228 -0.0281,0.0281 -0.0481,-0.0219 -0.0445,-0.11112 z m 0.0899,-0.28928 c 0,-0.0699 0.0327,-0.2032 0.0728,-0.29634 0.0459,-0.10673 0.0728,-0.12238 0.0728,-0.0423 0,0.0698 -0.0327,0.2032 -0.0728,0.29633 -0.0459,0.10674 -0.0728,0.12239 -0.0728,0.0423 z m 0.24878,-0.89606 c 0.004,-0.0986 0.0241,-0.11869 0.0512,-0.0511 0.0245,0.0611 0.0215,0.13415 -0.007,0.16228 -0.0281,0.0281 -0.0481,-0.0219 -0.0445,-0.11113 z m 0.25378,-0.75478 c -0.009,-0.12373 0.59794,-1.92165 0.63625,-1.88334 0.0179,0.0179 -0.11652,0.46795 -0.29865,1.00017 -0.18213,0.53222 -0.33405,0.92964 -0.3376,0.88317 z m 0.67087,-2.01321 c 0,-0.10928 0.447,-1.25117 0.47774,-1.22043 0.0179,0.0179 -0.0665,0.29549 -0.18747,0.61697 -0.20696,0.55001 -0.29027,0.7232 -0.29027,0.60346 z m 0.51059,-1.37362 c 0,-0.0466 0.0369,-0.14182 0.0821,-0.21167 0.0451,-0.0699 0.0821,-0.0889 0.0821,-0.0423 0,0.0466 -0.0369,0.14182 -0.0821,0.21167 -0.0451,0.0699 -0.0821,0.0889 -0.0821,0.0423 z m 0.16934,-0.42333 c 0,-0.0466 0.0369,-0.14182 0.0821,-0.21167 0.0452,-0.0699 0.0821,-0.0889 0.0821,-0.0423 0,0.0466 -0.0369,0.14181 -0.0821,0.21166 -0.0451,0.0699 -0.0821,0.0889 -0.0821,0.0423 z m 0.17274,-0.42334 c 0,-0.0466 0.0545,-0.17991 0.121,-0.29633 0.0666,-0.11642 0.121,-0.17357 0.121,-0.127 0,0.0466 -0.0545,0.17992 -0.121,0.29633 -0.0665,0.11642 -0.121,0.17357 -0.121,0.127 z m 0.254,-0.59266 c 0,-0.0466 0.0545,-0.17992 0.121,-0.29634 0.0665,-0.11641 0.121,-0.17356 0.121,-0.127 0,0.0466 -0.0545,0.17992 -0.121,0.29634 -0.0666,0.11641 -0.121,0.17356 -0.121,0.127 z m 0.25599,-0.59267 c 0,-0.0466 0.1107,-0.29422 0.24601,-0.55033 0.13531,-0.25612 0.24601,-0.42757 0.24601,-0.381 0,0.0466 -0.1107,0.29421 -0.24601,0.55033 -0.13531,0.25612 -0.24601,0.42757 -0.24601,0.381 z m 0.50001,-1.08797 c 0,-0.0922 0.92821,-1.9177 0.97508,-1.9177 0.0379,0 -0.86272,1.85416 -0.94242,1.94028 -0.018,0.0194 -0.0327,0.009 -0.0327,-0.0226 z m 1.27,-2.51036 c 0.14104,-0.2794 0.27549,-0.508 0.29877,-0.508 0.0233,0 -0.0731,0.2286 -0.2141,0.508 -0.14104,0.2794 -0.27549,0.508 -0.29878,0.508 -0.0233,0 0.0731,-0.2286 0.21411,-0.508 z m 0.46567,-0.84667 c 0.0722,-0.1397 0.1504,-0.254 0.17368,-0.254 0.0233,0 -0.0168,0.1143 -0.089,0.254 -0.0722,0.1397 -0.1504,0.254 -0.17368,0.254 -0.0233,0 0.0168,-0.1143 0.089,-0.254 z m 0.33866,-0.59267 c 0.0722,-0.1397 0.15041,-0.254 0.17369,-0.254 0.0233,0 -0.0168,0.1143 -0.089,0.254 -0.0722,0.1397 -0.1504,0.254 -0.17369,0.254 -0.0233,0 0.0168,-0.1143 0.089,-0.254 z m 0.29634,-0.508 c 0.0498,-0.0931 0.10967,-0.16933 0.13296,-0.16933 0.0233,0 0.002,0.0762 -0.0483,0.16933 -0.0498,0.0931 -0.10967,0.16934 -0.13296,0.16934 -0.0233,0 -0.002,-0.0762 0.0483,-0.16934 z m 0.254,-0.42333 c 0.0498,-0.0931 0.10967,-0.16933 0.13296,-0.16933 0.0233,0 0.002,0.0762 -0.0483,0.16933 -0.0498,0.0931 -0.10967,0.16933 -0.13296,0.16933 -0.0233,0 -0.002,-0.0762 0.0483,-0.16933 z m 0.29832,-0.47126 c 0.0787,-0.14278 0.21842,-0.35233 0.31046,-0.46567 l 0.16734,-0.20607 -0.14311,0.2596 c -0.0787,0.14277 -0.21843,0.35232 -0.31046,0.46566 l -0.16734,0.20607 z m 0.58561,-0.92574 c 0.34481,-0.56375 1.72938,-2.51616 2.46175,-3.47133 3.50908,-4.57669 7.80681,-8.74896 12.16277,-11.80774 0.56642,-0.39774 1.04473,-0.7678 1.06291,-0.82235 0.0182,-0.0546 -0.0549,-0.11599 -0.16232,-0.13652 -0.17353,-0.0332 -0.16934,-0.0386 0.0375,-0.0489 0.40601,-0.0201 0.2894,0.26597 -0.254,0.62317 -0.26776,0.176 -1.05834,0.7486 -1.75684,1.27243 -4.81847,3.61358 -9.1706,8.15519 -12.69549,13.2482 -0.87877,1.2697 -1.17826,1.6695 -0.85624,1.143 z m 14.71706,-16.35909 c 0.1287,-0.0195 0.3192,-0.0189 0.42333,0.001 0.10414,0.0201 -0.001,0.036 -0.23399,0.0354 -0.23283,-8.5e-4 -0.31803,-0.0171 -0.18934,-0.0365 z m -1.75799,-0.1498 c -0.4191,-0.057 -0.62865,-0.1055 -0.46567,-0.10782 0.16298,-0.002 0.67733,0.0443 1.143,0.10368 0.46567,0.0594 0.67522,0.10787 0.46567,0.10782 -0.20955,-5e-5 -0.7239,-0.0467 -1.143,-0.10368 z m -1.3335,-0.18786 c 0.10477,-0.0202 0.27622,-0.0202 0.381,0 0.10477,0.0202 0.019,0.0367 -0.1905,0.0367 -0.20955,0 -0.29528,-0.0165 -0.1905,-0.0367 z m -0.67635,-0.0848 c 0.10532,-0.0203 0.25772,-0.0195 0.33867,0.002 0.0809,0.0212 -0.005,0.0378 -0.19149,0.0368 -0.18627,-9.3e-4 -0.2525,-0.0183 -0.14718,-0.0385 z m -0.67733,-0.0847 c 0.10532,-0.0203 0.25772,-0.0195 0.33867,0.002 0.0809,0.0212 -0.005,0.0378 -0.19149,0.0368 -0.18627,-9.3e-4 -0.2525,-0.0183 -0.14718,-0.0385 z m -0.63599,-0.0831 c 0.0815,-0.0213 0.21484,-0.0213 0.29633,0 0.0815,0.0213 0.0148,0.0387 -0.14816,0.0387 -0.16299,0 -0.22966,-0.0174 -0.14817,-0.0387 z m -0.59106,-0.085 c 0.0824,-0.0215 0.19668,-0.0201 0.254,0.003 0.0573,0.0232 -0.0101,0.0408 -0.14977,0.039 -0.1397,-0.002 -0.1866,-0.0207 -0.10423,-0.0422 z m -0.59266,-0.0847 c 0.0824,-0.0215 0.19668,-0.02 0.254,0.003 0.0573,0.0232 -0.0101,0.0408 -0.14978,0.039 -0.1397,-0.002 -0.1866,-0.0207 -0.10422,-0.0422 z m -0.59267,-0.0847 c 0.0824,-0.0215 0.19668,-0.0201 0.254,0.003 0.0573,0.0232 -0.0101,0.0408 -0.14978,0.039 -0.1397,-0.002 -0.18659,-0.0207 -0.10422,-0.0422 z m -0.59267,-0.0847 c 0.0824,-0.0215 0.19668,-0.0201 0.254,0.003 0.0573,0.0232 -0.0101,0.0408 -0.14977,0.039 -0.1397,-0.002 -0.1866,-0.0207 -0.10423,-0.0422 z m -0.59266,-0.0847 c 0.0824,-0.0215 0.19668,-0.02 0.254,0.003 0.0573,0.0232 -0.0101,0.0407 -0.14978,0.039 -0.1397,-0.002 -0.1866,-0.0207 -0.10422,-0.0422 z m -0.59267,-0.0847 c 0.0824,-0.0215 0.19668,-0.0201 0.254,0.003 0.0573,0.0232 -0.0101,0.0408 -0.14978,0.039 -0.1397,-0.002 -0.18659,-0.0207 -0.10422,-0.0422 z m -0.508,-0.0847 c 0.0824,-0.0215 0.19668,-0.0201 0.254,0.003 0.0573,0.0232 -0.0101,0.0408 -0.14978,0.039 -0.1397,-0.002 -0.18659,-0.0207 -0.10422,-0.0422 z m -0.55194,-0.0821 c 0.0582,-0.0235 0.15346,-0.0235 0.21166,0 0.0582,0.0235 0.0106,0.0427 -0.10583,0.0427 -0.11642,0 -0.16404,-0.0192 -0.10583,-0.0427 z m -0.508,-0.0847 c 0.0582,-0.0235 0.15346,-0.0235 0.21166,0 0.0582,0.0235 0.0106,0.0427 -0.10583,0.0427 -0.11642,0 -0.16404,-0.0192 -0.10583,-0.0427 z m -0.508,-0.0847 c 0.0582,-0.0235 0.15346,-0.0235 0.21166,0 0.0582,0.0235 0.0106,0.0427 -0.10583,0.0427 -0.11642,0 -0.16404,-0.0192 -0.10583,-0.0427 z m -0.508,-0.0847 c 0.0582,-0.0235 0.15346,-0.0235 0.21166,0 0.0582,0.0235 0.0106,0.0427 -0.10583,0.0427 -0.11642,0 -0.16404,-0.0192 -0.10583,-0.0427 z m -0.508,-0.0847 c 0.0582,-0.0235 0.15346,-0.0235 0.21166,0 0.0582,0.0235 0.0106,0.0427 -0.10583,0.0427 -0.11642,0 -0.16404,-0.0192 -0.10583,-0.0427 z m -0.41804,-0.0864 c 0.0611,-0.0245 0.13414,-0.0215 0.16228,0.007 0.0281,0.0281 -0.0219,0.0481 -0.11113,0.0445 -0.0986,-0.004 -0.11869,-0.0241 -0.0512,-0.0511 z m -0.5133,-0.0829 c 0.0582,-0.0235 0.15346,-0.0235 0.21167,0 0.0582,0.0235 0.0106,0.0427 -0.10583,0.0427 -0.11642,0 -0.16404,-0.0192 -0.10584,-0.0427 z m -0.41804,-0.0864 c 0.0611,-0.0245 0.13415,-0.0215 0.16228,0.007 0.0281,0.0281 -0.0219,0.0481 -0.11112,0.0445 -0.0986,-0.004 -0.1187,-0.0241 -0.0512,-0.0512 z m -0.51329,-0.0829 c 0.0582,-0.0235 0.15346,-0.0235 0.21167,0 0.0582,0.0235 0.0106,0.0427 -0.10584,0.0427 -0.11641,0 -0.16404,-0.0192 -0.10583,-0.0427 z m -0.42333,-0.0847 c 0.0582,-0.0235 0.15346,-0.0235 0.21166,0 0.0582,0.0235 0.0106,0.0427 -0.10583,0.0427 -0.11642,0 -0.16404,-0.0192 -0.10583,-0.0427 z m -0.42334,-0.0847 c 0.0582,-0.0235 0.15346,-0.0235 0.21167,0 0.0582,0.0235 0.0106,0.0427 -0.10583,0.0427 -0.11642,0 -0.16404,-0.0192 -0.10584,-0.0427 z m -0.41804,-0.0864 c 0.0611,-0.0245 0.13415,-0.0215 0.16228,0.007 0.0281,0.0281 -0.0219,0.0482 -0.11112,0.0445 -0.0986,-0.004 -0.1187,-0.0241 -0.0512,-0.0512 z m -0.42333,-0.0847 c 0.0611,-0.0245 0.13414,-0.0215 0.16228,0.007 0.0281,0.0281 -0.0219,0.0481 -0.11113,0.0445 -0.0986,-0.004 -0.11869,-0.0241 -0.0511,-0.0512 z m -0.42333,-0.0847 c 0.0611,-0.0245 0.13414,-0.0215 0.16228,0.007 0.0281,0.0281 -0.0219,0.0482 -0.11113,0.0445 -0.0986,-0.004 -0.11869,-0.0241 -0.0512,-0.0512 z m -0.42334,-0.0847 c 0.0611,-0.0245 0.13415,-0.0215 0.16228,0.007 0.0281,0.0281 -0.0219,0.0481 -0.11112,0.0445 -0.0986,-0.004 -0.1187,-0.0241 -0.0512,-0.0511 z m -0.42333,-0.0847 c 0.0611,-0.0245 0.13414,-0.0214 0.16228,0.007 0.0281,0.0281 -0.0219,0.0481 -0.11113,0.0445 -0.0986,-0.004 -0.11869,-0.0241 -0.0512,-0.0512 z m -0.762,-0.16933 c 0.0611,-0.0245 0.13414,-0.0215 0.16228,0.007 0.0281,0.0281 -0.0219,0.0481 -0.11113,0.0445 -0.0986,-0.004 -0.11869,-0.0241 -0.0512,-0.0512 z m -0.42333,-0.0847 c 0.0611,-0.0245 0.13414,-0.0214 0.16228,0.007 0.0281,0.0281 -0.0219,0.0481 -0.11113,0.0445 -0.0986,-0.004 -0.11869,-0.0241 -0.0512,-0.0512 z m -0.33867,-0.0847 c 0.0611,-0.0245 0.13414,-0.0215 0.16228,0.007 0.0281,0.0281 -0.0219,0.0481 -0.11113,0.0445 -0.0986,-0.004 -0.11869,-0.0241 -0.0512,-0.0512 z m -0.42333,-0.0847 c 0.0611,-0.0245 0.13414,-0.0215 0.16228,0.007 0.0281,0.0281 -0.0219,0.0482 -0.11113,0.0445 -0.0986,-0.004 -0.11869,-0.0241 -0.0512,-0.0512 z m -0.33867,-0.0847 c 0.0611,-0.0245 0.13414,-0.0215 0.16228,0.007 0.0281,0.0281 -0.0219,0.0481 -0.11113,0.0445 -0.0986,-0.004 -0.11869,-0.0241 -0.0512,-0.0512 z m -0.762,-0.16933 c 0.0611,-0.0245 0.13414,-0.0215 0.16228,0.007 0.0281,0.0281 -0.0219,0.0481 -0.11113,0.0445 -0.0986,-0.004 -0.11869,-0.0241 -0.0512,-0.0511 z m -0.33867,-0.0847 c 0.0611,-0.0245 0.13415,-0.0214 0.16228,0.007 0.0281,0.0281 -0.0219,0.0481 -0.11112,0.0445 -0.0986,-0.004 -0.1187,-0.0241 -0.0512,-0.0512 z"
           style="fill:#007634;stroke-width:0.08466667" />
        <path
           inkscape:connector-curvature="0"
           id="path882"
           d="m 42.587333,392.32191 c -34.2389626,-1.1932 -69.272988,-9.01861 -100.564848,-22.46277 -21.927744,-9.42098 -41.205375,-21.14519 -57.740195,-35.11627 -3.69584,-3.12279 -6.95907,-6.12744 -10.97334,-10.1038 -5.03066,-4.98315 -8.72367,-9.01649 -12.75381,-13.92912 -4.52342,-5.51393 -7.28298,-10.5477 -8.47075,-15.45167 -0.42415,-1.75119 -0.54739,-2.76882 -0.54739,-4.51992 0,-3.34689 0.69788,-5.78395 2.38012,-8.31159 0.77577,-1.16562 2.37154,-2.72974 3.69651,-3.62316 1.11614,-0.75261 3.09451,-1.75494 4.46437,-2.26183 1.7942,-0.66392 4.79181,-1.30092 7.62347,-1.62004 1.9421,-0.21886 8.24144,-0.21752 10.6222,0.002 5.52168,0.50976 10.96452,1.5198 20.150663,3.73942 8.454057,2.04272 11.984,2.85347 14.520334,3.33498 9.936175,1.88633 20.695335,2.34884 31.665333,1.36122 21.391042,-1.92581 44.2335751,-9.4362 66.04,-21.71326 5.518345,-3.10685 11.439144,-6.87053 16.51,-10.49493 14.570083,-10.41401 26.642966,-21.97843 36.244293,-34.71783 6.203027,-8.23042 10.710892,-15.90641 15.047146,-25.62227 7.006878,-15.6997 14.488372,-27.9894 22.798511,-37.45067 1.46243,-1.665 4.39939,-4.68089 6.04705,-6.20954 0.62865,-0.58325 1.37055,-1.27339 1.64867,-1.53366 0.5229,-0.48932 1.30936,-1.15516 3.26598,-2.76505 1.0713,-0.88147 1.18486,-1.00479 1.91011,-2.07433 0.4241,-0.62543 1.10127,-1.66496 1.50481,-2.31005 l 0.73371,-1.17292 -0.18848,-0.64742 c -0.26715,-0.91772 -0.26627,-2.13304 0.002,-2.89109 0.2474,-0.69884 0.75875,-1.491 1.27289,-1.97192 0.22047,-0.20623 1.19878,-0.90731 2.17403,-1.55798 3.19728,-2.13315 5.29048,-3.34026 8.88519,-5.12389 9.82904,-4.87703 20.15816,-7.5643 31.52572,-8.20189 2.36881,-0.13286 10.00549,-0.0547 12.20461,0.12483 11.20525,0.91504 22.3023,3.59213 33.48567,8.07821 3.81372,1.52982 7.03635,2.99371 11.51466,5.23054 2.83794,1.41749 2.93798,1.45199 5.03767,1.73703 1.06148,0.14411 3.29142,0.14408 4.40267,-5e-5 1.90086,-0.24653 5.79278,-1.76541 9.18633,-3.5851 10.20439,-5.47179 18.6611,-13.67748 24.41036,-23.68578 4.65829,-8.109157 7.25187,-17.03122 7.80202,-26.839337 0.28798,-5.134195 -0.27835,-11.401315 -1.56079,-17.272 -0.76521,-3.502948 -3.62484,-16.280418 -3.77681,-16.875616 -0.24758,-0.969679 -0.89736,-3.0972 -1.85361,-6.069051 -0.45699,-1.420283 -1.13021,-3.534833 -1.49604,-4.699 l -0.66513,-2.116667 0.002,-1.227666 c 0.002,-1.431048 0.0651,-1.658607 0.84724,-3.052039 0.68952,-1.228529 2.68451,-4.187484 3.56502,-5.287628 0.97457,-1.217663 3.3208,-3.605728 4.39137,-4.469679 2.32066,-1.872763 5.00201,-3.25932 7.46434,-3.859886 1.97021,-0.480539 2.53279,-0.539554 4.74586,-0.497837 1.8674,0.0352 2.10507,0.05764 3.26905,0.308588 0.69039,0.148844 1.56669,0.368735 1.94733,0.488644 2.65229,0.835508 5.78254,2.546131 8.27961,4.524659 1.17681,0.932429 3.93863,3.670266 4.29413,4.256837 0.36046,0.594755 0.55677,1.171893 1.24206,3.651341 3.51982,12.735272 5.72628,26.22887 6.31313,38.608 0.11646,2.45651 0.0579,14.047563 -0.0802,15.875 -0.62941,8.329007 -1.4222,13.741679 -3.0316,20.697657 -4.13597,17.8761 -12.63165,34.4364 -24.49538,47.74789 -2.46675,2.76777 -6.08863,6.41177 -8.72067,8.77393 -0.53552,0.4806 -1.2032,1.086 -1.48373,1.34534 -0.28055,0.25933 -1.19495,1.04165 -2.032,1.73849 -2.0919,1.74147 -2.26964,1.91797 -2.8115,2.79197 -1.56193,2.51934 -2.3258,5.39259 -2.18926,8.23463 0.0606,1.26158 0.029,1.15386 1.27452,4.34343 4.03896,10.3432 6.46924,20.27532 7.40631,30.26833 0.34639,3.69395 0.38604,4.72106 0.38403,9.94833 -0.002,5.36629 -0.0684,6.87569 -0.47068,10.71034 -0.92648,8.83118 -3.19442,17.99553 -6.14964,24.84966 -1.06404,2.46788 -1.67205,3.29851 -2.86038,3.90776 -0.69076,0.35414 -0.84398,0.39748 -1.86083,0.52642 l -0.76017,0.0964 -1.06017,1.31904 c -1.29078,1.60598 -2.36697,3.17632 -2.60587,3.80239 -0.0977,0.25612 -0.53966,1.49437 -0.98209,2.75167 -3.20272,9.10156 -7.17863,17.61365 -11.87886,25.43159 -1.21954,2.02848 -3.79634,5.97523 -5.00968,7.67308 -3.88525,5.43666 -10.0442,12.78863 -16.31338,19.47333 -1.86102,1.98437 -8.8973,9.02331 -10.79533,10.79941 -16.49186,15.43241 -34.21596,27.99468 -54.52462,38.64526 -14.67856,7.69797 -32.30384,14.9186 -45.85194,18.78439 -15.096667,4.30766 -31.641558,6.78039 -49.652063,7.4208 -2.668439,0.0949 -15.209037,0.0901 -17.991667,-0.007 z m 17.272,-4.31035 c 14.790166,-0.53135 28.035454,-2.20969 40.822067,-5.17268 7.04428,-1.63233 12.93271,-3.39116 20.30727,-6.06564 42.64164,-15.46449 78.72182,-40.32391 106.0814,-73.09062 1.98709,-2.3798 3.9801,-4.86095 5.30473,-6.604 6.78482,-8.92802 13.19105,-20.88123 17.2884,-32.258 2.4117,-6.69637 3.75721,-11.82394 4.99342,-19.02927 l 0.10538,-0.61425 1.09895,1.46092 c 1.70278,2.26366 3.88434,4.97047 4.00769,4.97264 0.19299,0.003 1.14118,-2.20452 2.14442,-4.99338 2.33796,-6.49923 4.06152,-14.61792 4.68227,-22.05566 0.34961,-4.18879 0.44942,-10.34154 0.22595,-13.92767 -0.67336,-10.80562 -2.70709,-20.37292 -6.48855,-30.52398 -1.52999,-4.10713 -3.04573,-7.5253 -5.42271,-12.22875 -0.85787,-1.69751 -1.53028,-3.11588 -1.49424,-3.15192 0.036,-0.036 0.59788,-0.37503 1.24854,-0.75332 2.89763,-1.68465 7.26653,-4.80365 10.45401,-7.46322 2.49637,-2.08291 4.10411,-3.56156 6.73718,-6.19618 3.20741,-3.20932 4.98842,-5.19196 7.62235,-8.48531 7.93251,-9.91848 14.14953,-21.60738 17.93942,-33.72865 3.04235,-9.730438 4.72797,-19.359806 5.29107,-30.226002 0.11115,-2.144912 0.11141,-10.74034 0,-12.962755 -0.64075,-12.826306 -2.7298,-25.377165 -6.53042,-39.234245 l -0.34833,-1.27 -1.19532,-1.186371 c -2.38342,-2.365568 -4.99833,-4.161529 -7.59282,-5.214857 -1.99471,-0.809831 -3.34015,-1.098797 -5.37117,-1.15359 -1.29042,-0.03481 -1.67972,-0.01411 -2.54,0.135086 -4.24287,0.735821 -8.17092,3.579196 -11.65375,8.435732 -1.11107,1.549825 -2.61221,3.969297 -2.61221,4.210851 0,0.133167 0.33721,1.201072 2.11918,6.711149 0.69274,2.142066 1.41406,4.425459 1.60294,5.074208 0.18887,0.64875 0.99272,4.0968 1.78633,7.662334 0.79362,3.565533 1.63434,7.320991 1.86828,8.345458 1.01496,4.444661 1.48579,7.194575 1.8483,10.795 0.50305,4.9964 0.44214,10.410427 -0.17229,15.312678 -2.15747,17.213574 -11.37826,32.828464 -25.73471,43.580364 -7.00398,5.24545 -15.0386,8.99315 -22.88152,10.67295 l -1.42118,0.30439 -1.33049,-0.80547 c -9.88018,-5.98133 -22.38942,-11.00497 -33.9695,-13.64194 -5.29727,-1.20628 -10.21645,-1.94527 -15.66334,-2.35305 -2.28981,-0.17143 -10.31921,-0.14361 -12.446,0.0431 -9.08932,0.798 -16.44745,2.58149 -24.257,5.87952 -1.86128,0.78603 -6.20998,2.95067 -8.02053,3.99234 -2.39605,1.37854 -5.79906,3.57293 -5.88398,3.79422 -0.0248,0.0647 0.0646,0.23397 0.19868,0.37611 0.61856,0.6556 3.10657,2.57624 4.75233,3.6686 0.47731,0.3168 0.86784,0.59983 0.86784,0.62893 0,0.0291 -0.25718,0.16312 -0.5715,0.29783 -0.98371,0.42157 -3.50555,1.70156 -4.68778,2.37934 -1.47921,0.84803 -3.96216,2.49071 -5.45106,3.60632 -2.69146,2.01667 -4.69637,3.77667 -7.45171,6.54143 -9.43641,9.46866 -17.878843,22.73307 -25.736621,40.43634 -2.397108,5.4006 -4.540258,9.56937 -7.225436,14.05466 -9.792674,16.3576 -23.681682,31.45456 -40.908563,44.46646 -26.9061777,20.32291 -59.395749,33.56548 -88.857667,36.21791 -3.909491,0.35196 -5.763759,0.43994 -10.244666,0.48607 -5.596467,0.0576 -9.167047,-0.0889 -13.927667,-0.5716 -6.242516,-0.6329 -10.056546,-1.36917 -21.420667,-4.13508 -11.369393,-2.76721 -16.098633,-3.67244 -22.013333,-4.21368 -2.07074,-0.18949 -7.41121,-0.21601 -9.10167,-0.0452 -5.47174,0.55287 -9.07213,1.78942 -11.63652,3.99652 -1.29133,1.11141 -2.3952,2.89254 -2.8589,4.61293 -0.21639,0.80282 -0.22828,0.94752 -0.22967,2.794 -10e-4,1.69167 0.0228,2.05849 0.18366,2.794 1.02636,4.69406 3.51241,9.29429 7.93858,14.68966 6.99023,8.52093 14.90281,16.4899 23.65451,23.82312 25.747284,21.57414 59.037828,38.028 96.105343,47.50008 19.0581707,4.87005 38.949376,7.8038 57.742667,8.51647 1.32715,0.0503 2.6797,0.10178 3.005667,0.11434 1.674249,0.0645 13.345388,0.0434 15.324666,-0.0277 z"
           style="fill:#040404;stroke-width:0.08466667" />
      </g>
    </g>
  </g>
</svg>
